PathFileType	3	(X/Y/Z)	D:\minhoCalibration\240510\subject2_KPNP\preferred\preferred06.trc
DataRate	CameraRate	NumFrames	NumMarkers	Units	OrigDataRate	OrigDataStartFrame	OrigNumFrames
200.0	200.0	30	10	mm	200.0	260	188	
Frame#	Time	Left_Ankle_Outer1			Left_Ankle_Inner1			Left_Knee_Outer1			Left_Knee_Inner1			Left_Wrist1			Right_Wrist1			Right_Knee_Inner1			Right_Knee_Outer1			Right_Ankle_Inner1			Right_Ankle_Outer1			
		X1	Y1	Z1	X2	Y2	Z2	X3	Y3	Z3	X4	Y4	Z4	X5	Y5	Z5	X6	Y6	Z6	X7	Y7	Z7	X8	Y8	Z8	X9	Y9	Z9	X10	Y10	Z10	
260	1.29	-502.51584	87.710281	-800.09857	-533.46533	87.601898	-754.29645	-318.638	501.92999	-691.16602	-409.26657	483.82455	-647.48596	-394.07132	923.54034	-838.02887	-717.8938	963.88245	-934.46002	-829.41968	464.31058	-952.18622	-875.64484	520.91138	-1016.6804	-720.71906	156.96822	-1195.5144	-782.54028	191.41692	-1265.3979
261	1.295	-502.09357	87.601166	-800.12915	-533.00903	87.494667	-754.70355	-316.52856	500.48328	-689.82019	-407.90903	482.40881	-646.85211	-389.00623	926.0614	-835.64679	-714.42407	965.02301	-925.21143	-835.90417	468.39688	-938.06458	-881.40491	525.62683	-1002.577	-725.086	164.69862	-1187.3638	-786.52515	200.76797	-1256.7919
262	1.3	-501.60687	87.564857	-800.21515	-532.88672	87.452209	-754.97827	-314.82907	498.87979	-688.69653	-406.41748	481.14703	-646.78412	-383.88434	928.45929	-833.43561	-710.88867	966.42151	-917.07379	-842.15247	472.9577	-923.19965	-886.66821	530.71503	-987.68573	-730.39978	173.11496	-1178.3844	-790.66003	210.75774	-1247.6321
263	1.305	-501.15591	87.493851	-800.41315	-532.56628	87.611748	-755.29309	-312.57077	497.56213	-687.39478	-404.8363	479.98703	-647.00366	-378.92477	930.836	-831.30298	-706.9035	967.99805	-910.25909	-847.8252	477.95517	-907.0589	-891.23517	536.28967	-972.05365	-734.78345	181.48514	-1169.4565	-794.89905	221.42108	-1237.839
264	1.31	-500.68164	87.433678	-800.45953	-532.14154	87.504868	-755.80511	-310.42032	496.47849	-686.56244	-403.37085	479.10477	-646.76117	-373.87079	933.37622	-829.35303	-703.11584	969.98462	-902.50458	-852.51709	483.31299	-890.47369	-895.42029	542.0365	-955.41248	-739.71985	190.81592	-1159.5679	-799.34967	232.53619	-1227.2286
265	1.315	-500.11032	87.492813	-800.71448	-531.91425	87.587906	-756.01062	-308.22397	495.41159	-685.93195	-401.30408	478.95987	-646.59204	-368.78784	935.81567	-827.45178	-699.43463	972.44653	-893.27911	-856.31787	489.00494	-872.74158	-899.08856	548.13245	-938.02936	-744.79138	200.6384	-1148.8369	-803.63379	243.94743	-1215.8711
266	1.32	-499.62091	87.506134	-800.87384	-531.36237	87.893242	-756.11206	-305.85464	494.47568	-686.08282	-399.31244	478.96426	-645.95715	-363.67319	938.20947	-826.00775	-695.96674	974.51764	-884.74921	-859.31061	494.98312	-855.13312	-902.12683	554.30908	-919.96094	-748.64001	210.92802	-1137.8025	-807.64392	255.90572	-1204.0541
267	1.325	-499.33789	87.424881	-800.95972	-530.95129	88.081215	-756.15295	-303.66006	493.55606	-686.76599	-396.51947	478.82916	-646.66199	-358.42712	941.03931	-824.52472	-692.1203	977.37927	-878.54126	-861.14185	501.08051	-836.39673	-904.63831	560.7041	-901.21063	-752.60596	221.90727	-1126.3522	-811.40887	268.4137	-1191.8125
268	1.33	-498.66934	87.948296	-801.4422	-530.52954	88.247429	-756.46014	-300.98111	492.74966	-688.44916	-393.34372	478.80081	-647.44275	-353.37198	943.71741	-823.23859	-688.38379	980.5918	-869.55048	-862.18738	507.02536	-817.54944	-906.5448	567.12561	-881.76697	-756.25104	233.58073	-1115.08	-814.9942	281.91794	-1179.4935
269	1.335	-498.42059	87.840034	-801.62469	-530.35583	88.499001	-756.47003	-298.65723	492.02023	-690.82611	-389.88425	478.82404	-648.41498	-347.51758	946.48206	-822.48883	-684.62817	983.89655	-861.68335	-862.10236	513.32861	-798.50238	-907.55579	574.24207	-862.85339	-758.79486	246.46899	-1104.6932	-818.44873	296.1738	-1166.5179
270	1.34	-498.10153	87.783371	-801.96722	-529.94897	88.797935	-756.64441	-296.44321	491.24036	-693.95123	-386.07996	478.80853	-649.68628	-342.23871	949.15411	-821.99884	-680.76282	987.77643	-852.172	-861.41187	519.67206	-779.45575	-908.45459	580.93909	-841.89386	-760.19708	260.98303	-1093.5233	-821.42657	311.10318	-1153.3291
271	1.345	-497.52872	87.86319	-802.64868	-529.62	88.99173	-757.2807	-294.47247	490.79453	-697.73132	-382.2034	478.73273	-651.39551	-336.948	951.86108	-821.6814	-676.8197	991.7179	-843.5274	-860.06036	526.01813	-760.06451	-909.34625	587.63147	-818.79468	-760.16486	276.87421	-1081.9802	-823.73907	326.74225	-1139.791
272	1.35	-497.73013	87.32209	-802.74384	-529.17053	89.445816	-757.56726	-292.28561	490.41238	-702.03003	-378.58902	478.51129	-653.27148	-331.87122	954.38318	-822.36774	-672.63861	996.13611	-834.23291	-857.95166	532.44775	-740.62909	-908.82428	594.72784	-798.13379	-759.18353	293.4375	-1069.8657	-825.14795	342.8371	-1125.7748
273	1.355	-497.46567	87.356529	-803.29321	-528.57037	89.901344	-757.98175	-290.61328	490.19177	-706.44708	-375.03333	478.40805	-655.74011	-327.08414	956.98517	-823.50287	-668.40057	1000.3063	-823.74786	-855.39136	538.99707	-721.17633	-908.53253	602.84857	-776.26318	-757.66187	309.9801	-1057.1899	-825.57336	359.36368	-1110.9875
274	1.36	-497.07422	87.448074	-803.92059	-527.94617	90.374046	-758.57642	-288.90732	490.18607	-711.27258	-371.79083	478.35797	-658.58783	-322.58084	959.16656	-825.17072	-663.84729	1005.0952	-812.69226	-852.17755	545.9812	-701.47375	-906.91272	610.81812	-755.16608	-755.92249	326.57584	-1043.6724	-825.1452	376.44769	-1095.5369
275	1.365	-496.75473	87.576981	-804.45648	-527.50726	91.02636	-758.78271	-287.27893	490.33725	-716.4577	-368.88812	478.67322	-660.70392	-318.16309	961.47943	-827.14062	-659.0188	1009.9466	-802.17389	-848.45428	553.21429	-681.59631	-905.24908	619.53284	-731.47113	-754.30499	343.31424	-1029.7644	-824.09668	394.00732	-1079.6959
276	1.37	-496.0144	88.118652	-805.56787	-526.95941	91.711151	-758.99402	-285.8548	490.56879	-721.66443	-366.10068	478.80029	-664.38422	-314.24307	963.92389	-829.58228	-653.87646	1014.989	-791.35156	-844.31598	561.30847	-660.76038	-902.29297	628.64569	-708.89923	-752.98456	360.13159	-1015.192	-823.03564	412.06012	-1063.1661
277	1.375	-495.93173	88.459656	-805.94727	-526.25232	92.34407	-759.4696	-284.71396	491.01059	-727.33307	-363.46484	479.01459	-668.39728	-311.11603	966.00952	-832.36804	-648.34918	1020.0485	-781.2384	-839.26813	569.43634	-639.98785	-898.51575	638.52502	-685.24988	-751.83905	377.16129	-1000.1954	-822.36469	430.39941	-1046.1925
278	1.38	-495.72198	88.783928	-806.56598	-525.74286	93.001747	-759.97296	-283.81021	491.51465	-733.09906	-361.22739	479.46997	-672.38916	-308.47574	967.77448	-835.68713	-642.46216	1025.7117	-769.91846	-833.46808	577.69214	-618.75323	-893.50623	648.45764	-662.46814	-750.78967	394.83063	-984.97217	-822.27087	448.76163	-1028.5858
279	1.385	-495.46426	89.230865	-807.30713	-524.98334	93.410622	-760.87305	-283.04773	492.2291	-739.22858	-359.06769	480.08667	-676.64746	-305.95483	969.35321	-839.10895	-636.11261	1031.0853	-759.52917	-826.8866	586.9599	-597.2536	-887.84979	658.97668	-638.15527	-750.1665	413.02545	-968.91449	-822.69501	467.36725	-1010.4648
280	1.39	-495.34161	89.705231	-808.00897	-524.38544	94.874901	-760.65259	-283.29388	492.78415	-745.41138	-357.14374	480.87546	-681.09149	-303.46259	971.22467	-842.61328	-629.3465	1036.5061	-749.2934	-819.31537	596.43201	-575.51416	-881.07745	669.78839	-614.09033	-749.07568	431.76038	-953.09424	-823.24628	486.34335	-991.87897
281	1.395	-495.1785	90.340729	-808.71881	-523.49347	95.687164	-761.34949	-283.12878	493.68225	-751.80554	-355.2934	481.83438	-685.60486	-302.02881	972.49878	-846.63275	-622.28131	1041.9423	-739.2453	-810.87549	606.27161	-553.74518	-873.12091	680.94916	-590.21088	-748.50714	450.51862	-936.62354	-823.95264	505.29916	-972.59155
282	1.4	-495.18652	90.998985	-809.3952	-522.92773	96.502579	-761.92181	-283.51926	494.70782	-758.38867	-353.55814	482.98807	-690.03381	-300.45456	973.87817	-851.02863	-614.52161	1047.6527	-729.31598	-801.53741	616.35046	-531.77759	-864.29877	692.15106	-566.03632	-748.16492	469.18353	-919.66162	-824.28381	524.66711	-952.92334
283	1.405	-495.14294	91.828758	-810.0202	-522.70312	97.479988	-762.20215	-283.81537	495.90372	-765.04718	-351.8233	484.35199	-694.32935	-299.62646	974.96234	-855.6145	-606.97559	1053.3839	-720.0155	-791.41388	626.83264	-509.89658	-854.32056	703.6972	-542.07343	-747.98785	487.88052	-902.28137	-825.14569	544.0824	-932.33514
284	1.41	-495.25516	92.750549	-810.57495	-521.90045	99.433334	-761.15674	-284.42798	497.16516	-771.56287	-350.04736	485.86292	-698.48254	-299.20947	975.91693	-860.48016	-599.20569	1059.1898	-711.00775	-780.36902	637.57764	-487.81396	-843.99738	715.40259	-517.17688	-748.422	506.72543	-884.53259	-825.26501	564.07019	-911.70154
285	1.415	-495.46924	93.791519	-810.92719	-521.13403	100.39133	-761.9101	-284.76288	498.64993	-777.98706	-348.17535	487.32001	-702.45575	-299.0921	976.67615	-865.92456	-591.25208	1064.9944	-702.62537	-768.27142	648.83057	-465.96902	-832.0097	727.54028	-493.4791	-748.97217	525.40283	-866.30359	-825.81305	584.4129	-890.39734
286	1.42	-495.81796	94.889229	-811.09888	-520.47913	101.72105	-761.659	-285.13513	500.00864	-784.17358	-345.95041	488.92563	-706.46191	-299.58661	977.29919	-871.64197	-583.20166	1070.8435	-694.70404	-755.36041	660.42029	-443.99048	-819.24872	740.36609	-469.34201	-748.51758	544.51935	-847.96088	-826.40784	603.92474	-868.19476
287	1.425	-496.38348	95.956955	-811.00659	-520.11383	102.8947	-760.88251	-285.19757	501.43683	-790.17029	-343.52954	490.2886	-710.33881	-301.07407	977.69366	-877.15204	-575.05511	1076.5355	-687.33289	-741.34668	672.10443	-423.19894	-805.54553	753.66144	-444.47339	-749.61694	563.34125	-828.56879	-827.42371	624.39532	-844.95361
288	1.43	-497.13605	97.233536	-810.99426	-518.92065	104.25603	-760.78668	-285.58951	502.586	-795.87903	-340.67001	491.56415	-714.16254	-303.44458	977.60461	-882.53442	-566.78613	1082.2507	-680.41693	-726.67749	685.13593	-401.37512	-789.97272	767.39594	-421.7186	-751.09863	582.12726	-808.59943	-828.5802	644.60303	-821.39136
289	1.435	-497.90341	98.211464	-810.43414	-518.55878	106.16402	-758.64673	-285.13	503.94196	-801.82764	-337.35306	492.67621	-718.06268	-306.66696	977.36993	-887.78687	-558.37524	1087.8254	-674.01306	-711.12402	698.26819	-380.29654	-773.05646	781.87457	-399.27112	-753.18311	600.62732	-787.98187	-829.65674	664.8103	-796.89001
